<svg width="16" height="18" viewBox="0 0 16 18" fill="none" xmlns="http://www.w3.org/2000/svg">
<path d="M14.8777 11.0939L13.565 9.7626L7.65785 3.77238C6.56917 2.67661 4.81183 2.67992 3.72723 3.77982C2.64263 4.87973 2.63937 6.66187 3.71989 7.76591L9.62676 13.7579C9.86836 14.0031 10.2602 14.0031 10.502 13.7579C10.7436 13.5128 10.7436 13.1155 10.502 12.8704L4.5951 6.87835C3.99097 6.2657 3.99097 5.27259 4.5951 4.65994C5.19922 4.04729 6.17852 4.04729 6.78264 4.65994L12.6913 10.6502L14.004 11.9813C15.0916 13.0846 15.0912 14.8731 14.0033 15.9759C12.9153 17.0787 11.1519 17.0784 10.0643 15.9751L8.97059 14.8655L2.84482 8.65333L2.40715 8.20962C0.877402 6.60978 0.896833 4.06107 2.45063 2.48521C4.00456 0.909488 6.51781 0.889783 8.09539 2.44111L14.6587 9.09717C14.8151 9.25564 15.043 9.31751 15.2564 9.2595C15.47 9.20149 15.6369 9.03241 15.6941 8.81579C15.7513 8.59917 15.6902 8.36822 15.5339 8.20962L8.97059 1.55369C6.91513 -0.521269 3.59135 -0.517411 1.54064 1.56238C-0.510212 3.64202 -0.514016 7.0127 1.53208 9.09717L8.09539 15.7531L9.19072 16.8626C10.7703 18.4013 13.2737 18.3757 14.8222 16.8048C16.3708 15.234 16.3954 12.6954 14.8777 11.0939Z" fill="#959BA7"/>
</svg>