<svg width="24" height="24" viewBox="0 0 24 24" fill="none" xmlns="http://www.w3.org/2000/svg">
<path d="M20.1674 10.3461L5.2063 4.13819C4.57601 3.87663 3.86398 3.99169 3.34803 4.43832C2.83208 4.88502 2.61629 5.57326 2.78492 6.23451L4.25512 12L2.78492 17.7655C2.61629 18.4268 2.83204 19.115 3.34799 19.5617C3.86492 20.0093 4.57713 20.1229 5.2063 19.8618L20.1674 13.6539C20.8486 13.3712 21.2718 12.7375 21.2718 12C21.2718 11.2625 20.8486 10.6288 20.1674 10.3461ZM19.751 12.6503L4.78987 18.8583C4.53827 18.9626 4.26516 18.9186 4.05919 18.7402C3.85326 18.5619 3.7705 18.2979 3.83779 18.0339L5.23792 12.5433H10.6366C10.9367 12.5433 11.1799 12.3 11.1799 12C11.1799 11.6999 10.9367 11.4567 10.6366 11.4567H5.23795L3.83779 5.96607C3.7705 5.70212 3.85326 5.4381 4.05919 5.2598C4.26512 5.0815 4.53816 5.03739 4.78984 5.14177L19.751 11.3497C20.1539 11.5169 20.1852 11.8897 20.1852 12C20.1852 12.1103 20.1539 12.4831 19.751 12.6503Z" fill="#577DC7" stroke="#577DC7" stroke-width="0.2"/>
</svg>